<svg xmlns:mydata="http://www.w3.org/2000/svg" mydata:contrastcolor="00B08B" mydata:template="Contrast" mydata:presentation="2.5" mydata:layouttype="undefined" mydata:specialfontid="undefined" mydata:id1="272" mydata:id2="272" mydata:companyname="Thiago Hufnagel" mydata:companytagline="" version="1.1" xmlns="http://www.w3.org/2000/svg" xmlns:xlink="http://www.w3.org/1999/xlink" viewBox="0 0 550 470" style="background-color: rgb(0, 176, 139); background-image: radial-gradient(circle closest-side, rgba(255, 255, 255, 0.07) 0%, rgba(255, 255, 255, 0) 100%);"><g fill="#101820" fillRule="none" stroke="none" strokeWidth="1" stroke-linecap="butt" stroke-linejoin="miter" stroke-miterlimit="10" stroke-dasharray="" stroke-dashoffset="0" font-family="none" font-weight="none" font-size="none" text-anchor="none" style="mix-blend-mode: normal; stroke: rgb(16, 24, 32); strokeWidth: 1; fill-opacity: 1; stroke-opacity: 0; transition: fill-opacity 1200ms linear 0s, stroke-opacity 1200ms 0s;"><g data-paper-data="{&quot;isGlobalGroup&quot;:true,&quot;bounds&quot;:{&quot;x&quot;:145.99975091504118,&quot;y&quot;:106,&quot;width&quot;:258.0004981699177,&quot;height&quot;:258}}" style="stroke: rgb(16, 24, 32); strokeWidth: 1; fill-opacity: 1; stroke-opacity: 0; transition: fill-opacity 1200ms linear 0s, stroke-opacity 1200ms 0s;"><g data-paper-data="{&quot;initialText&quot;:&quot;t&quot;,&quot;fillRule&quot;:&quot;nonzero&quot;,&quot;selectedEffects&quot;:{&quot;container&quot;:&quot;circle_simple_filledplus&quot;,&quot;transformation&quot;:&quot;&quot;,&quot;pattern&quot;:&quot;&quot;},&quot;blockLetter&quot;:&quot;O&quot;,&quot;blockLetterId&quot;:0,&quot;relativeBoundsIconToContainer&quot;:{&quot;top&quot;:-1.76207790070632e-7,&quot;left&quot;:0.008258286965325856},&quot;widthRatioIconToContainer&quot;:0.3042959562904301,&quot;heightRatioIconToContainer&quot;:0.7826374961587061,&quot;bounds&quot;:{&quot;x&quot;:199.27868368252874,&quot;y&quot;:159.27847064452632,&quot;width&quot;:151.44198782796204,&quot;height&quot;:151.44335761231108},&quot;isIcon&quot;:&quot;true&quot;,&quot;iconType&quot;:&quot;initial&quot;,&quot;iconStyle&quot;:&quot;standalone&quot;,&quot;rawInitialId&quot;:764,&quot;suitableAsStandaloneIcon&quot;:true}" fillRule="evenodd" style="stroke: rgb(16, 24, 32); strokeWidth: 1; fill-opacity: 1; stroke-opacity: 0; transition: fill-opacity 1200ms linear 0s, stroke-opacity 1200ms 0s;"><path d="M274.99991,159.27847c-41.81952,0 -75.72122,33.90216 -75.72122,75.72168c0,41.81952 33.90171,75.72168 75.72122,75.72168c41.81952,0 75.72077,-33.90216 75.72077,-75.72168c0,-41.81952 -33.90125,-75.72168 -75.72077,-75.72168zM281.01783,182.994h29.71793v10.84869h-29.71793v93.1636h-12.18423v-93.1636h-29.56953v-10.84869z" style="stroke: rgb(16, 24, 32); strokeWidth: 1; fill-opacity: 1; stroke-opacity: 0; stroke-dasharray: 827, 867; stroke-dashoffset: 0; transition: fill-opacity 1200ms linear 0s, stroke-opacity 1200ms 0s;"></path></g><g data-paper-data="{&quot;isPrimaryText&quot;:true}" fillRule="nonzero" style="stroke: rgb(16, 24, 32); strokeWidth: 1; fill-opacity: 1; stroke-opacity: 0; transition: fill-opacity 1200ms linear 0s, stroke-opacity 1200ms 0s;"><path d="M168.15318,201.43197l-1.12055,4.26982l-1.57437,5.9991l1.55849,0.409l1.11495,-4.24847l13.3859,3.51292l0.45942,-1.75063l-13.3859,-3.51292l1.12055,-4.26982z" data-paper-data="{&quot;glyphName&quot;:&quot;T&quot;,&quot;glyphIndex&quot;:0,&quot;firstGlyphOfWord&quot;:true,&quot;word&quot;:1}" style="stroke: rgb(16, 24, 32); strokeWidth: 1; fill-opacity: 1; stroke-opacity: 0; stroke-dasharray: 53, 93; stroke-dashoffset: 0; transition: fill-opacity 1200ms linear 0s, stroke-opacity 1200ms 0s;"></path><path d="M176.09062,182.62263l6.43818,3.11313l-3.55512,7.35224l-6.43818,-3.11313l-0.77828,1.60955l13.90965,6.72589l0.77828,-1.60955l-6.14012,-2.969l3.55512,-7.35224l6.14012,2.969l0.78789,-1.62942l-13.90965,-6.72589z" data-paper-data="{&quot;glyphName&quot;:&quot;H&quot;,&quot;glyphIndex&quot;:1,&quot;word&quot;:1}" style="stroke: rgb(16, 24, 32); strokeWidth: 1; fill-opacity: 1; stroke-opacity: 0; stroke-dasharray: 83, 123; stroke-dashoffset: 0; transition: fill-opacity 1200ms linear 0s, stroke-opacity 1200ms 0s;"></path><path d="M196.21088,179.17701l-12.68524,-8.82048l-1.02066,1.46786l12.68524,8.82048z" data-paper-data="{&quot;glyphName&quot;:&quot;I&quot;,&quot;glyphIndex&quot;:2,&quot;word&quot;:1}" style="stroke: rgb(16, 24, 32); strokeWidth: 1; fill-opacity: 1; stroke-opacity: 0; stroke-dasharray: 35, 75; stroke-dashoffset: 0; transition: fill-opacity 1200ms linear 0s, stroke-opacity 1200ms 0s;"></path><path d="M209.35218,164.34231l1.3662,-1.41153l-15.50752,-6.19364l-1.08989,1.12605l6.71163,15.28133l1.35085,-1.39567l-1.76539,-3.92037l4.97359,-5.13859zM199.80265,166.46491l-3.43206,-7.53016l7.63812,3.18456z" data-paper-data="{&quot;glyphName&quot;:&quot;A&quot;,&quot;glyphIndex&quot;:3,&quot;word&quot;:1}" style="stroke: rgb(16, 24, 32); strokeWidth: 1; fill-opacity: 1; stroke-opacity: 0; stroke-dasharray: 78, 118; stroke-dashoffset: 0; transition: fill-opacity 1200ms linear 0s, stroke-opacity 1200ms 0s;"></path><path d="M222.00881,145.13797l-0.23747,0.16107l-4.0552,2.75051l0.81772,1.2056l2.94093,-1.99474c1.84146,2.91155 1.374,4.9355 -1.21987,6.69484c-2.44773,1.66022 -5.09006,1.18546 -7.55561,-2.44961c-2.46555,-3.63507 -1.92947,-6.26564 0.51826,-7.92586c1.84493,-1.25136 3.25258,-1.29934 4.50743,-0.55025l1.40653,-0.95401c-1.78236,-1.64479 -4.38307,-1.5077 -6.8308,0.15252c-3.288,2.23015 -4.19608,5.80646 -1.13582,10.31832c3.04786,4.4936 6.71884,4.99075 10.00684,2.76061c3.76293,-2.55228 4.1165,-5.80582 0.83704,-10.16901z" data-paper-data="{&quot;glyphName&quot;:&quot;G&quot;,&quot;glyphIndex&quot;:4,&quot;word&quot;:1}" style="stroke: rgb(16, 24, 32); strokeWidth: 1; fill-opacity: 1; stroke-opacity: 0; stroke-dasharray: 86, 126; stroke-dashoffset: 0; transition: fill-opacity 1200ms linear 0s, stroke-opacity 1200ms 0s;"></path><path d="M232.7324,131.31385c-3.67855,1.50092 -5.29086,4.85253 -3.24794,9.85945c2.04291,5.00692 5.53971,6.27393 9.21826,4.77301c3.67855,-1.50092 5.29086,-4.85253 3.24794,-9.85945c-2.04291,-5.00692 -5.53971,-6.27393 -9.21826,-4.77301zM238.08567,144.43401c-2.73848,1.11735 -5.23355,0.08526 -6.88456,-3.96114c-1.65101,-4.04641 -0.59015,-6.52938 2.14833,-7.64673c2.73848,-1.11735 5.23355,-0.08526 6.88456,3.96114c1.65101,4.04641 0.59015,6.52938 -2.14833,7.64673z" data-paper-data="{&quot;glyphName&quot;:&quot;O&quot;,&quot;glyphIndex&quot;:5,&quot;lastGlyphOfWord&quot;:true,&quot;word&quot;:1}" style="stroke: rgb(16, 24, 32); strokeWidth: 1; fill-opacity: 1; stroke-opacity: 0; stroke-dasharray: 84, 124; stroke-dashoffset: 0; transition: fill-opacity 1200ms linear 0s, stroke-opacity 1200ms 0s;"></path><path d="M273.20873,123.10281l0.37281,7.14162l-8.15556,0.42574l-0.37281,-7.14162l-1.78541,0.0932l0.80545,15.42943l1.78541,-0.0932l-0.35555,-6.81099l8.15556,-0.42574l0.35555,6.81099l1.80745,-0.09435l-0.80545,-15.42943z" data-paper-data="{&quot;glyphName&quot;:&quot;H&quot;,&quot;glyphIndex&quot;:6,&quot;firstGlyphOfWord&quot;:true,&quot;word&quot;:2}" style="stroke: rgb(16, 24, 32); strokeWidth: 1; fill-opacity: 1; stroke-opacity: 0; stroke-dasharray: 83, 123; stroke-dashoffset: 0; transition: fill-opacity 1200ms linear 0s, stroke-opacity 1200ms 0s;"></path><path d="M296.14283,134.81554l1.4397,-9.51511l-1.76772,-0.26747l-1.41658,9.36235c-0.45238,2.98984 -2.13581,4.23079 -4.711,3.84115c-2.57519,-0.38964 -3.79432,-2.06976 -3.34193,-5.05961l1.41658,-9.36235l-1.76772,-0.26747l-1.4397,9.51511c-0.56795,3.75367 1.3748,6.25763 4.88841,6.78926c3.53543,0.53493 6.132,-1.28219 6.69995,-5.03586z" data-paper-data="{&quot;glyphName&quot;:&quot;U&quot;,&quot;glyphIndex&quot;:7,&quot;word&quot;:2}" style="stroke: rgb(16, 24, 32); strokeWidth: 1; fill-opacity: 1; stroke-opacity: 0; stroke-dasharray: 75, 115; stroke-dashoffset: 0; transition: fill-opacity 1200ms linear 0s, stroke-opacity 1200ms 0s;"></path><path d="M316.67383,132.79739l0.55043,-1.53779l-9.06049,-3.24308l-5.20679,14.54666l1.68326,0.6025l2.32818,-6.50444l6.00569,2.14966l0.52068,-1.45467l-6.00569,-2.14966l1.8075,-5.04977z" data-paper-data="{&quot;glyphName&quot;:&quot;F&quot;,&quot;glyphIndex&quot;:8,&quot;word&quot;:2}" style="stroke: rgb(16, 24, 32); strokeWidth: 1; fill-opacity: 1; stroke-opacity: 0; stroke-dasharray: 63, 103; stroke-dashoffset: 0; transition: fill-opacity 1200ms linear 0s, stroke-opacity 1200ms 0s;"></path><path d="M336.84096,141.63018l-1.55905,-0.91931l-6.39034,10.83729l-0.56834,-14.94056l-1.61609,-0.95295l-7.84779,13.30895l1.54004,0.9081l6.37913,-10.81828l0.56054,14.91034l1.65411,0.97537z" data-paper-data="{&quot;glyphName&quot;:&quot;N&quot;,&quot;glyphIndex&quot;:9,&quot;word&quot;:2}" style="stroke: rgb(16, 24, 32); strokeWidth: 1; fill-opacity: 1; stroke-opacity: 0; stroke-dasharray: 94, 134; stroke-dashoffset: 0; transition: fill-opacity 1200ms linear 0s, stroke-opacity 1200ms 0s;"></path><path d="M343.8631,167.47107l1.44855,1.32688l5.76497,-15.67193l-1.15559,-1.05852l-15.09105,7.12919l1.43228,1.31197l3.87035,-1.8725l5.27338,4.83045zM341.47877,157.98351l7.43296,-3.63777l-2.97337,7.72278z" data-paper-data="{&quot;glyphName&quot;:&quot;A&quot;,&quot;glyphIndex&quot;:10,&quot;word&quot;:2}" style="stroke: rgb(16, 24, 32); strokeWidth: 1; fill-opacity: 1; stroke-opacity: 0; stroke-dasharray: 78, 118; stroke-dashoffset: 0; transition: fill-opacity 1200ms linear 0s, stroke-opacity 1200ms 0s;"></path><path d="M363.40445,179.59745l-0.16744,-0.23301l-2.85944,-3.97914l-1.18299,0.8501l2.07374,2.88577c-2.86056,1.91971 -4.89644,1.5073 -6.72545,-1.03792c-1.72597,-2.40182 -1.32301,-5.05605 2.24388,-7.61924c3.56689,-2.56319 6.21103,-2.09863 7.93699,0.3032c1.30092,1.81033 1.38704,3.21616 0.67224,4.49086l0.99179,1.38015c1.59587,-1.8263 1.38832,-4.42233 -0.33765,-6.82416c-2.31846,-3.22633 -5.91808,-4.03712 -10.34532,-0.85567c-4.40932,3.16857 -4.80677,6.85167 -2.48831,10.07801c2.65335,3.69236 5.91529,3.95759 10.18797,0.56105z" data-paper-data="{&quot;glyphName&quot;:&quot;G&quot;,&quot;glyphIndex&quot;:11,&quot;word&quot;:2}" style="stroke: rgb(16, 24, 32); strokeWidth: 1; fill-opacity: 1; stroke-opacity: 0; stroke-dasharray: 86, 126; stroke-dashoffset: 0; transition: fill-opacity 1200ms linear 0s, stroke-opacity 1200ms 0s;"></path><path d="M362.96425,191.50671l5.04331,-2.29294l2.71316,5.96758l1.4065,-0.63946l-2.71316,-5.96758l4.64145,-2.11023l3.26127,7.17316l1.48687,-0.67601l-4.00122,-8.80068l-14.06501,6.39465l4.09258,9.00161l1.48687,-0.67601z" data-paper-data="{&quot;glyphName&quot;:&quot;E&quot;,&quot;glyphIndex&quot;:12,&quot;word&quot;:2}" style="stroke: rgb(16, 24, 32); strokeWidth: 1; fill-opacity: 1; stroke-opacity: 0; stroke-dasharray: 80, 120; stroke-dashoffset: 0; transition: fill-opacity 1200ms linear 0s, stroke-opacity 1200ms 0s;"></path><path d="M369.38816,208.16951l13.39119,-3.40417l-0.44048,-1.73273l-14.97418,3.80658l2.21869,8.72781l1.58298,-0.40241z" data-paper-data="{&quot;glyphName&quot;:&quot;L&quot;,&quot;glyphIndex&quot;:13,&quot;lastGlyphOfWord&quot;:true,&quot;word&quot;:2}" style="stroke: rgb(16, 24, 32); strokeWidth: 1; fill-opacity: 1; stroke-opacity: 0; stroke-dasharray: 49, 89; stroke-dashoffset: 0; transition: fill-opacity 1200ms linear 0s, stroke-opacity 1200ms 0s;"></path></g><g data-paper-data="{&quot;isContainerElementsWrapper&quot;:true}" fillRule="evenodd" style="stroke: rgb(16, 24, 32); strokeWidth: 1; fill-opacity: 1; stroke-opacity: 0; transition: fill-opacity 1200ms linear 0s, stroke-opacity 1200ms 0s;"><path d="M274.9999,106c-17.48583,0 -34.226,3.38247 -50.22031,10.1475c-15.43628,6.529 -29.10181,15.74091 -40.99661,27.63572c-11.89481,11.89478 -21.10672,25.56032 -27.63572,40.99661c-6.765,15.99448 -10.1475,32.73458 -10.1475,50.22031c-0.00007,17.48573 3.38243,34.22587 10.1475,50.22041c6.529,15.43593 15.74091,29.10137 27.63572,40.99631c11.89479,11.89495 25.56033,21.10675 40.99661,27.63542c15.99441,6.76513 32.73451,10.1477 50.22031,10.1477c17.48603,0 34.2257,-3.38257 50.21991,-10.1477c15.43659,-6.52867 29.10237,-15.74048 40.99731,-27.63542c11.89428,-11.89495 21.10609,-25.56038 27.63542,-40.99631c6.76513,-15.99454 10.1477,-32.73468 10.1477,-50.22041c0,-17.48593 -3.38257,-34.226 -10.1477,-50.22021c-6.52933,-15.43633 -15.74114,-29.1019 -27.63542,-40.99671c-11.89495,-11.89468 -25.56072,-21.10659 -40.99731,-27.63572c-15.99388,-6.765 -32.73385,-10.1475 -50.21991,-10.1475zM216.79922,176.79947c-15.76678,15.76678 -23.79973,34.73702 -24.09884,56.91072h-44.11443c0.1623,-16.67083 3.47483,-32.64591 9.93757,-47.92525c6.39835,-15.1274 15.42627,-28.51987 27.08377,-40.1774c11.65758,-11.65757 25.05005,-20.68549 40.1774,-27.08377c15.67319,-6.62923 32.07826,-9.94385 49.21521,-9.94385c17.13671,0 33.54221,3.31462 49.2156,9.94385c15.12707,6.39822 28.51918,15.42614 40.17633,27.08377c11.65782,11.65764 20.6863,25.05008 27.08545,40.17731c6.46225,15.27934 9.77407,31.25452 9.93648,47.92535h-44.11485c-0.2989,-22.1736 -8.33138,-41.14377 -24.09743,-56.91072c-16.07159,-16.07168 -35.47212,-24.10752 -58.20158,-24.10752c-22.72879,0 -42.12902,8.03584 -58.20068,24.10752zM331.37618,178.62377c15.56745,15.56778 23.35117,34.35991 23.35117,56.37638c0,0.01714 0,0.03427 0.001,0.05131c-0.01196,21.99466 -7.79634,40.76965 -23.35217,56.32547c-15.56811,15.56745 -34.36021,23.35117 -56.37628,23.35117c-22.01634,0 -40.80847,-7.78372 -56.37638,-23.35117c-15.56745,-15.56745 -23.35139,-34.35911 -23.35182,-56.37499l0,-0.00179c0,-22.01634 7.78394,-40.80847 23.35181,-56.37638c15.56791,-15.56788 34.36004,-23.35181 56.37638,-23.35181c22.01674,0 40.80884,7.78394 56.37628,23.35181zM182.92672,264.69102l-1.12048,-4.26931l-1.57441,-5.99945l-1.55847,0.4091l1.115,4.24829l-13.3859,3.51309l0.45941,1.75057l13.3859,-3.51309l1.12048,4.2703zM381.36744,264.87634l-13.39078,-3.40449l-0.44038,1.73263l14.97396,3.80701l2.21884,-8.72792l-1.58318,-0.40252zM369.17326,281.31591l5.04346,2.29357l3.35168,-7.3739l1.48753,0.67552l-4.09296,9.00191l-14.06431,-6.3945l4.0003,-8.80065l1.48753,0.67552l-3.26101,7.17363l4.64094,2.11024l2.71303,-5.96806l1.40683,0.63965zM189.84131,280.72907l-6.43814,3.11256l-3.55513,-7.35198l6.43816,-3.11356l-0.77829,-1.60909l-13.90964,6.72528l0.77824,1.61008l6.14013,-2.96909l3.55513,7.35198l-6.14013,2.96909l0.7879,1.63001l13.90966,-6.72628zM363.4762,290.45432l-0.16738,0.23314l-2.85949,3.97937l1.18265,0.84988l2.07438,-2.88539c2.73096,2.09829 2.99001,4.15971 1.16073,6.70436c-1.72566,2.40217 -4.36994,2.86646 -7.93683,0.30388c-3.56689,-2.56358 -3.97041,-5.21782 -2.24375,-7.619c1.30022,-1.81035 2.60542,-2.3404 4.04214,-2.06939l0.99136,-1.38092c-2.23977,-0.92958 -4.63397,0.09465 -6.36062,2.49682c-2.31748,3.22614 -1.93887,6.89665 2.48885,10.07796c4.4088,3.16835 8.0265,2.37029 10.34498,-0.85585c2.65325,-3.69243 1.86514,-6.86875 -2.71701,-9.83485zM196.0659,290.92459l-12.68525,8.81958l-1.02065,-1.46761l12.68524,-8.82058zM198.1234,316.52649l1.36621,1.41081l6.69623,-15.29678l-1.08984,-1.12586l-15.49217,6.20918l1.35085,1.39587l3.97587,-1.63698l4.97359,5.13911zM196.31349,306.91283l7.63812,-3.18529l-3.43206,7.53032zM355.86717,312.72546l-1.44868,1.32712l-3.85383,-1.88706l-5.27362,4.83025l1.52639,4.01923l-1.43174,1.31218l-5.78175,-15.65745l1.15575,-1.05811zM341.78493,307.87429l2.97407,7.72361l4.45961,-4.08499zM221.72183,324.77418l0.23743,0.16141c-2.84106,4.65987 -5.99467,5.53466 -9.75764,2.98304c-3.28801,-2.2308 -4.18372,-5.82459 -1.13583,-10.31808c3.06025,-4.51241 6.7188,-4.99165 10.00682,-2.76085c2.4478,1.6599 3.5369,4.02521 2.66789,6.28988l-1.40653,-0.95449c0.23195,-1.4427 -0.33328,-2.73295 -2.17819,-3.98436c-2.4477,-1.6599 -5.08999,-1.18465 -7.55563,2.44999c-2.46554,3.63564 -1.92941,6.26597 0.51829,7.92587c2.59387,1.75953 4.64722,1.44569 6.67138,-1.34207l-2.94099,-1.99467l0.81779,-1.20557zM329.08261,315.21332l-1.55927,0.91962l6.39051,10.83717l-13.34893,-6.73425l-1.61606,0.9525l7.84815,13.30908l1.54034,-0.90766l-6.37955,-10.81824l13.31904,6.72628l1.65392,-0.97541zM238.63596,324.21722c-3.67848,-1.50048 -7.17533,-0.23314 -9.21822,4.77345c-2.04289,5.0066 -0.43062,8.35828 3.24796,9.85976c3.67858,1.50048 7.17533,0.23314 9.21822,-4.77345c2.04299,-5.0066 0.43062,-8.35828 -3.24796,-9.85976zM312.07712,324.3607l0.54998,1.53735l-7.37689,2.6403l1.80736,5.05044l6.00592,-2.1501l0.52009,1.45465l-6.00493,2.1501l2.32745,6.50409l-1.68281,0.60278l-5.20686,-14.54653zM233.28274,337.338c-2.73843,-1.11789 -3.79934,-3.60077 -2.1483,-7.64689c1.65093,-4.04613 4.14606,-5.07833 6.8845,-3.96144c2.73853,1.11789 3.79934,3.60077 2.1484,7.64689c-1.65103,4.04613 -4.14616,5.07833 -6.8846,3.96144zM296.7375,339.11347l-1.43971,-9.51602l-1.768,0.26801l1.41629,9.36259c0.45234,2.98901 -0.7883,4.67282 -3.36344,5.06239c-2.57523,0.38957 -4.23683,-0.85486 -4.68916,-3.84387l-1.41659,-9.36259l-1.7678,0.26702l1.43971,9.51503c0.56801,3.7542 3.16457,5.57152 6.67815,5.03948c3.5356,-0.53503 5.47846,-3.03883 4.91055,-6.79204zM273.63213,338.78568l0.37283,-7.14175l1.80746,0.09465l-0.80544,15.42929l-1.80746,-0.09366l0.35559,-6.81097l-8.15562,-0.42643l-0.35549,6.81097l-1.78544,-0.09266l0.80544,-15.42929l1.78544,0.09266l-0.37283,7.14175z" data-paper-data="{&quot;isBaseLogoContainer&quot;:true}" style="stroke: rgb(16, 24, 32); strokeWidth: 1; fill-opacity: 1; stroke-opacity: 0; stroke-dasharray: 3072, 3112; stroke-dashoffset: 0; transition: fill-opacity 1200ms linear 0s, stroke-opacity 1200ms 0s;"></path></g></g></g></svg>